<?xml version="1.0" encoding="UTF-8" standalone="no"?>
<!-- Created with Inkscape (http://www.inkscape.org/) -->

<svg
   width="74.602577"
   height="95.815002"
   viewBox="0 0 19.738605 25.351074"
   version="1.1"
   id="svg1"
   inkscape:export-filename="symbol_switch_close.svg"
   inkscape:export-xdpi="62.638248"
   inkscape:export-ydpi="62.638248"
   xml:space="preserve"
   xmlns:inkscape="http://www.inkscape.org/namespaces/inkscape"
   xmlns:sodipodi="http://sodipodi.sourceforge.net/DTD/sodipodi-0.dtd"
   xmlns="http://www.w3.org/2000/svg"
   xmlns:svg="http://www.w3.org/2000/svg"><sodipodi:namedview
     id="namedview1"
     pagecolor="#ffffff"
     bordercolor="#666666"
     borderopacity="1.0"
     inkscape:showpageshadow="2"
     inkscape:pageopacity="0.0"
     inkscape:pagecheckerboard="0"
     inkscape:deskcolor="#d1d1d1"
     inkscape:document-units="mm" /><defs
     id="defs1" /><g
     inkscape:label="Calque 1"
     inkscape:groupmode="layer"
     id="layer1"
     transform="translate(-0.33220981,-0.24605659)"><g
       id="g3087"
       transform="matrix(0.26458333,0,0,0.26458333,-120.96769,-125.66697)"
       style="display:inline"><path
         inkscape:connector-curvature="0"
         id="rect3249"
         d="m 466.02874,477.66376 h 59.45772 c 3.21344,0 5.80044,2.58698 5.80044,5.80042 v 80.67016 c 0,3.21344 -2.587,5.80042 -5.80044,5.80042 h -59.45772 c -3.21344,0 -5.80042,-2.58698 -5.80042,-5.80042 v -80.67016 c 0,-3.21344 2.58698,-5.80042 5.80042,-5.80042 z"
         style="color:#000000;display:inline;overflow:visible;visibility:visible;fill:#999999;fill-opacity:1;fill-rule:nonzero;stroke:#000000;stroke-width:3.544;stroke-linecap:butt;stroke-linejoin:round;stroke-miterlimit:4;stroke-dashoffset:0;stroke-opacity:1;marker:none" /><rect
         rx="5.8004227"
         ry="5.8004341"
         y="484.7507"
         x="467.91354"
         height="44.359825"
         width="56.329552"
         id="rect3253"
         style="color:#000000;display:inline;overflow:visible;visibility:visible;fill:#ffffff;fill-opacity:1;fill-rule:nonzero;stroke:#000000;stroke-width:3.544;stroke-linecap:butt;stroke-linejoin:round;stroke-miterlimit:4;stroke-dasharray:none;stroke-dashoffset:0;stroke-opacity:1;marker:none" /><path
         inkscape:connector-curvature="0"
         transform="matrix(2,0,0,2,-188.198,-22.5722)"
         d="m 350.7874,292.63779 a 1.7716535,1.7716535 0 0 1 -1.77165,1.77165 1.7716535,1.7716535 0 0 1 -1.77166,-1.77165 1.7716535,1.7716535 0 0 1 1.77166,-1.77166 1.7716535,1.7716535 0 0 1 1.77165,1.77166 z"
         id="path3255"
         style="color:#000000;display:inline;overflow:visible;visibility:visible;fill:#ff0000;fill-opacity:1;fill-rule:nonzero;stroke:#000000;stroke-width:1.772;stroke-linecap:butt;stroke-linejoin:round;stroke-miterlimit:4;stroke-dasharray:none;stroke-dashoffset:0;stroke-opacity:1;marker:none" /><path
         inkscape:connector-curvature="0"
         transform="matrix(2,0,0,2,-188.198,-22.5722)"
         d="m 357.87401,292.63779 a 1.7716535,1.7716535 0 0 1 -1.77165,1.77165 1.7716535,1.7716535 0 0 1 -1.77166,-1.77165 1.7716535,1.7716535 0 0 1 1.77166,-1.77166 1.7716535,1.7716535 0 0 1 1.77165,1.77166 z"
         id="path3257"
         style="color:#000000;display:inline;overflow:visible;visibility:visible;fill:#5599ff;fill-opacity:1;fill-rule:nonzero;stroke:#000000;stroke-width:1.772;stroke-linecap:butt;stroke-linejoin:round;stroke-miterlimit:4;stroke-dasharray:none;stroke-dashoffset:0;stroke-opacity:1;marker:none" /><text
         transform="scale(0.973857,1.02684)"
         id="text3265"
         y="547.99274"
         x="479.85974"
         style="font-style:normal;font-variant:normal;font-weight:bold;font-stretch:normal;font-size:37.7089px;line-height:125%;font-family:'Bitstream Vera Sans';text-align:start;writing-mode:lr-tb;text-anchor:start;display:inline;fill:#0066ff;fill-opacity:1;stroke:#0b1728;stroke-width:2px;stroke-linecap:butt;stroke-linejoin:miter;stroke-opacity:1"
         xml:space="preserve"><tspan
           style="font-style:normal;font-variant:normal;font-weight:normal;font-stretch:normal;font-family:FreeSerif;-inkscape-font-specification:FreeSerif;stroke-width:2"
           y="547.99274"
           x="479.85974"
           id="tspan3267">V</tspan></text><path
         inkscape:connector-curvature="0"
         id="path2447"
         d="m 499.55564,527.49416 7.3366,-27.38058"
         style="display:inline;fill:none;stroke:#000000;stroke-width:2px;stroke-linecap:butt;stroke-linejoin:miter;stroke-opacity:1" /></g></g></svg>
