<svg width="512" height="512" version="1.1" xmlns="http://www.w3.org/2000/svg" desc="Created with imagetracer.js version 1.2.6" ><path fill="rgb(0,0,0)" stroke="rgb(0,0,0)" stroke-width="1" opacity="0.9647058823529412" d="M 220.5 139 Q 230.6 137.4 233 143.5 L 235 148.5 L 235 363.5 Q 233.8 369.3 229.5 372 L 220.5 373 L 215 368.5 L 213 364.5 L 213 267 L 52.5 267 Q 46.8 265.8 44 261.5 L 43 252.5 L 47.5 247 L 51.5 245 L 213 245 L 213 147.5 L 218.5 140 L 220.5 139 Z " /><path fill="rgb(0,0,0)" stroke="rgb(0,0,0)" stroke-width="1" opacity="0.9647058823529412" d="M 284.5 139 Q 294.6 137.4 297 143.5 L 299 148.5 L 299 245 L 460.5 245 L 468 250.5 L 469 259.5 L 464.5 265 L 459.5 267 L 299 267 L 299 363.5 Q 297.8 369.3 293.5 372 L 284.5 373 L 279 368.5 L 277 364.5 L 277 147.5 L 282.5 140 L 284.5 139 Z " /><path fill="rgb(0,0,0)" stroke="rgb(0,0,0)" stroke-width="1" opacity="0" d="M 0 0 L 512 0 L 512 512 L 0 512 L 0 0 Z M 221 139 L 219 140 L 213 148 L 213 245 L 52 245 L 48 247 L 43 253 L 44 262 Q 47 266 53 267 L 213 267 L 213 365 L 215 369 L 221 373 L 230 372 Q 234 369 235 364 L 235 149 L 233 144 Q 231 137 221 139 Z M 285 139 L 283 140 L 277 148 L 277 365 L 279 369 L 285 373 L 294 372 Q 298 369 299 364 L 299 267 L 460 267 L 465 265 L 469 260 L 468 251 L 461 245 L 299 245 L 299 149 L 297 144 Q 295 137 285 139 Z " /></svg>